<svg width="24" height="24" viewBox="0 0 24 24" fill="none" xmlns="http://www.w3.org/2000/svg">
<path d="M12.0006 13.714C11.1529 13.714 10.3243 13.4627 9.61955 12.9917C8.91476 12.5208 8.36545 11.8515 8.04108 11.0684C7.7167 10.2853 7.63183 9.42354 7.79719 8.59219C7.96256 7.76085 8.37073 6.99721 8.9701 6.39784C9.56947 5.79847 10.3331 5.39029 11.1645 5.22493C11.9958 5.05956 12.8575 5.14444 13.6406 5.46881C14.4237 5.79319 15.0931 6.3425 15.564 7.04728C16.0349 7.75206 16.2863 8.58066 16.2863 9.4283C16.2849 10.5645 15.8329 11.6538 15.0295 12.4573C14.2261 13.2607 13.1368 13.7126 12.0006 13.714ZM12.0006 6.85687C11.492 6.85687 10.9948 7.00768 10.572 7.29023C10.1491 7.57278 9.8195 7.97438 9.62487 8.44425C9.43024 8.91412 9.37932 9.43115 9.47854 9.92996C9.57776 10.4288 9.82266 10.887 10.1823 11.2466C10.5419 11.6062 11.0001 11.8511 11.4989 11.9503C11.9977 12.0495 12.5147 11.9986 12.9846 11.804C13.4545 11.6094 13.8561 11.2798 14.1386 10.8569C14.4212 10.434 14.572 9.93688 14.572 9.4283C14.5713 8.74652 14.3002 8.09286 13.8181 7.61077C13.336 7.12868 12.6823 6.85755 12.0006 6.85687Z" fill="#009661"/>
<path d="M12.0008 24L4.76999 15.4723C4.66952 15.3442 4.57008 15.2154 4.4717 15.0857C3.23654 13.4587 2.56928 11.4713 2.57228 9.42857C2.57228 6.92796 3.56564 4.52977 5.33384 2.76156C7.10204 0.993365 9.50023 0 12.0008 0C14.5015 0 16.8997 0.993365 18.6679 2.76156C20.4361 4.52977 21.4294 6.92796 21.4294 9.42857C21.4324 11.4704 20.7654 13.4568 19.5308 15.0831L19.53 15.0857C19.53 15.0857 19.2728 15.4234 19.2343 15.4689L12.0008 24ZM5.8397 14.0529C5.84142 14.0529 6.04028 14.3169 6.0857 14.3734L12.0008 21.3497L17.9237 14.364C17.9614 14.3169 18.162 14.0511 18.1628 14.0503C19.1718 12.721 19.7171 11.0975 19.7151 9.42857C19.7151 7.38262 18.9024 5.42046 17.4557 3.97375C16.009 2.52704 14.0468 1.71429 12.0008 1.71429C9.95489 1.71429 7.99273 2.52704 6.54602 3.97375C5.09931 5.42046 4.28656 7.38262 4.28656 9.42857C4.28476 11.0985 4.83066 12.7229 5.84056 14.0529H5.8397Z" fill="#009661"/>
</svg>
