<svg width="32" height="32" viewBox="0 0 32 32" fill="none" xmlns="http://www.w3.org/2000/svg">
<path d="M22.1996 1.23102C20.9112 1.24427 19.5897 1.49587 18.2968 2.01195L18.2381 2.03686L18.1794 2.0671C17.3598 2.48449 16.6128 3.00662 15.9487 3.62539C12.3747 0.534272 6.68484 0.309925 2.79215 3.81929L2.753 3.85486L2.71743 3.89222C-0.697396 7.45905 -0.617423 12.9521 1.42951 17.2925L1.4473 17.3263L1.46508 17.3618C3.87586 21.826 8.37751 25.6192 12.4799 28.7377L12.4905 28.7466L12.4994 28.7538C12.7633 28.9473 13.2171 29.3473 13.7411 29.741C14.2649 30.1348 14.8568 30.5663 15.7227 30.7318L15.9166 30.7692L16.1123 30.7532C17.0211 30.6748 17.3777 30.3392 17.9748 29.9634C18.5719 29.5875 19.2328 29.1104 19.912 28.5883C21.2507 27.5591 22.6359 26.3729 23.548 25.5269C23.5597 25.516 23.5791 25.5003 23.5907 25.4895C23.5926 25.4879 23.5941 25.4858 23.596 25.4842C25.5174 23.8446 27.4206 21.9545 29.034 19.7313C29.0345 19.7306 29.0353 19.7302 29.0358 19.7296C29.0388 19.7255 29.0416 19.7212 29.0447 19.7171C31.6035 16.272 32.8447 11.6292 31.3643 7.0551L31.3376 6.97326L31.3021 6.89675C29.6399 3.30331 26.0649 1.19131 22.1996 1.23102ZM22.2459 4.04521C25.0308 3.98115 27.4718 5.47235 28.6836 8.02275C29.8033 11.5933 28.8354 15.2313 26.75 18.0325L26.7446 18.0396L26.7393 18.0467C25.2865 20.0515 23.5271 21.8064 21.7033 23.3584L21.6802 23.3798L21.6571 23.4011C20.8358 24.1656 19.4457 25.3564 18.1758 26.3327C17.5408 26.8209 16.9321 27.2571 16.4592 27.5548C16.2814 27.6667 16.1123 27.743 15.9736 27.8021C15.8277 27.7224 15.6426 27.6102 15.4506 27.4659C15.0639 27.1753 14.6522 26.8043 14.2036 26.4732C14.1966 26.4679 14.1892 26.4626 14.1823 26.4572C10.2011 23.4291 6.00759 19.7523 3.99108 16.0455C2.35399 12.5481 2.42543 8.36195 4.7382 5.90233C7.8829 3.10627 12.5548 3.71414 14.8849 6.58363L16.0198 7.98006L17.1174 6.55518C17.7489 5.7359 18.5025 5.10958 19.4175 4.63401C20.3765 4.25937 21.3293 4.06627 22.2459 4.04521Z" fill="#009661"/>
<path d="M6.99957 3C6.49957 3 2.99957 7 2.49957 7C2.3329 7.5 1.99957 8.6 1.99957 9C1.99957 9.5 1.49957 11.5 1.99957 12C2.39957 12.4 2.49957 15.1667 2.49957 16.5C3.3329 17.8333 5.09957 20.5 5.49957 20.5C5.89957 20.5 10.9996 25.5 13.4996 28C14.6662 28.3333 17.0996 29 17.4996 29C17.8996 29 19.6662 27 20.4996 26L26.4996 21L28.9996 17.5L29.9996 13.5V8.5L27.9996 4C26.8329 3.66667 24.2996 3 23.4996 3C22.4996 3 19.9996 3.5 19.4996 3.5C18.9996 3.5 16.9996 5 16.4996 5C15.9996 5 13.4996 3.5 12.9996 3.5C12.4996 3.5 7.49957 3 6.99957 3Z" fill="#009661"/>
</svg>
