<svg width="24" height="24" viewBox="0 0 24 24" fill="none" xmlns="http://www.w3.org/2000/svg">
<path d="M8.71485 4.25781H12.0088C12.3971 4.25781 12.7119 3.943 12.7119 3.55469C12.7119 3.16637 12.3971 2.85156 12.0088 2.85156H8.71485C8.32653 2.85156 8.01172 3.16637 8.01172 3.55469C8.01172 3.943 8.32649 4.25781 8.71485 4.25781Z" fill="#009661"/>
<path d="M8.71485 7.07715H15.2408C15.6291 7.07715 15.9439 6.76234 15.9439 6.37402C15.9439 5.98571 15.6291 5.6709 15.2408 5.6709H8.71485C8.32653 5.6709 8.01172 5.98571 8.01172 6.37402C8.01172 6.76234 8.32648 7.07715 8.71485 7.07715V7.07715Z" fill="#009661"/>
<path d="M18.938 9.28627V1.29909C18.938 0.582797 18.3552 0 17.6389 0H6.31518C5.59889 0 5.01609 0.582797 5.01609 1.29909V9.28627C4.48579 9.39436 3 10.5 3 11.8125C3 13.6703 3.0009 20.5 3.00054 21.5C3 23 4.5 24 5.53171 24H18.4223C19.8439 24 21.0005 22.8435 21.0005 21.4219V11.8125C21.0005 10.5675 20.1133 9.5258 18.938 9.28627ZM17.5317 1.40625V9.23438H6.42234V1.40625H17.5317ZM19.5942 21.4219C19.5942 22.068 19.0685 22.5938 18.4223 22.5938H5.53171C4.88554 22.5938 4.35984 22.068 4.35984 21.4219V11.8125C4.35984 11.1663 4.88554 10.6406 5.53171 10.6406H18.4223C19.0685 10.6406 19.5942 11.1663 19.5942 11.8125V21.4219Z" fill="#009661"/>
<path d="M8.69531 13.1016H7.75781C7.3695 13.1016 7.05469 13.4164 7.05469 13.8047C7.05469 14.193 7.3695 14.5078 7.75781 14.5078H8.69531C9.08363 14.5078 9.39844 14.193 9.39844 13.8047C9.39844 13.4164 9.08363 13.1016 8.69531 13.1016Z" fill="#009661"/>
<path d="M12.4453 13.1016H11.5078C11.1195 13.1016 10.8047 13.4164 10.8047 13.8047C10.8047 14.193 11.1195 14.5078 11.5078 14.5078H12.4453C12.8336 14.5078 13.1484 14.193 13.1484 13.8047C13.1484 13.4164 12.8336 13.1016 12.4453 13.1016Z" fill="#009661"/>
<path d="M16.1953 13.1016H15.2578C14.8695 13.1016 14.5547 13.4164 14.5547 13.8047C14.5547 14.193 14.8695 14.5078 15.2578 14.5078H16.1953C16.5836 14.5078 16.8984 14.193 16.8984 13.8047C16.8984 13.4164 16.5836 13.1016 16.1953 13.1016Z" fill="#009661"/>
<path d="M8.69531 15.9141H7.75781C7.3695 15.9141 7.05469 16.2289 7.05469 16.6172C7.05469 17.0055 7.3695 17.3203 7.75781 17.3203H8.69531C9.08363 17.3203 9.39844 17.0055 9.39844 16.6172C9.39844 16.2289 9.08363 15.9141 8.69531 15.9141Z" fill="#009661"/>
<path d="M12.4453 15.9141H11.5078C11.1195 15.9141 10.8047 16.2289 10.8047 16.6172C10.8047 17.0055 11.1195 17.3203 11.5078 17.3203H12.4453C12.8336 17.3203 13.1484 17.0055 13.1484 16.6172C13.1484 16.2289 12.8336 15.9141 12.4453 15.9141Z" fill="#009661"/>
<path d="M16.1953 15.9141H15.2578C14.8695 15.9141 14.5547 16.2289 14.5547 16.6172C14.5547 17.0055 14.8695 17.3203 15.2578 17.3203H16.1953C16.5836 17.3203 16.8984 17.0055 16.8984 16.6172C16.8984 16.2289 16.5836 15.9141 16.1953 15.9141Z" fill="#009661"/>
<path d="M8.69531 18.7266H7.75781C7.3695 18.7266 7.05469 19.0414 7.05469 19.4297C7.05469 19.818 7.3695 20.1328 7.75781 20.1328H8.69531C9.08363 20.1328 9.39844 19.818 9.39844 19.4297C9.39844 19.0414 9.08363 18.7266 8.69531 18.7266Z" fill="#009661"/>
<path d="M12.4453 18.7266H11.5078C11.1195 18.7266 10.8047 19.0414 10.8047 19.4297C10.8047 19.818 11.1195 20.1328 11.5078 20.1328H12.4453C12.8336 20.1328 13.1484 19.818 13.1484 19.4297C13.1484 19.0414 12.8336 18.7266 12.4453 18.7266Z" fill="#009661"/>
<path d="M16.1953 18.7266H15.2578C14.8695 18.7266 14.5547 19.0414 14.5547 19.4297C14.5547 19.818 14.8695 20.1328 15.2578 20.1328H16.1953C16.5836 20.1328 16.8984 19.818 16.8984 19.4297C16.8984 19.0414 16.5836 18.7266 16.1953 18.7266Z" fill="#009661"/>
</svg>
