<svg width="177" height="66" viewBox="0 0 177 66" fill="none" xmlns="http://www.w3.org/2000/svg">
<g filter="url(#filter0_d_17_74)">
<rect x="25" y="13" width="133" height="27" fill="#EB5757"/>
</g>
<path d="M0 8C0 3.58172 3.58172 0 8 0H170V40H8C3.58172 40 0 36.4183 0 32V8Z" fill="#EB5757"/>
<path d="M151 40H170L151 56V40Z" fill="#8A2323"/>
<path d="M26.0132 25H24.3652V16.1333H18.8673V25H17.2194V14.5H26.0132V25ZM34.8233 18.1604C35.1247 18.5396 35.3483 18.9819 35.4941 19.4875C35.64 19.9833 35.7129 20.5083 35.7129 21.0625C35.7129 22.2486 35.4164 23.2111 34.8233 23.95C34.5025 24.3583 34.099 24.6743 33.6129 24.8979C33.1365 25.1118 32.6309 25.2188 32.0962 25.2188C31.2018 25.2188 30.4532 24.9757 29.8504 24.4896V28.5H28.2025V17.125H29.6608V17.7958C29.9816 17.5139 30.3462 17.2951 30.7546 17.1396C31.1726 16.984 31.6053 16.9062 32.0525 16.9062C32.5969 16.9062 33.1122 17.0181 33.5983 17.2417C34.0941 17.4556 34.5025 17.7618 34.8233 18.1604ZM33.5108 22.9437C33.8219 22.5062 33.9775 21.8792 33.9775 21.0625C33.9775 20.2458 33.8171 19.6139 33.4962 19.1667C33.1365 18.6417 32.5726 18.3792 31.8046 18.3792C31.4837 18.3792 31.1872 18.4375 30.915 18.5542C30.6428 18.6611 30.4191 18.8264 30.2441 19.05C29.8553 19.5264 29.6608 20.1972 29.6608 21.0625C29.6608 21.4611 29.7094 21.8354 29.8066 22.1854C29.9039 22.5354 30.0497 22.8271 30.2441 23.0604C30.6428 23.5174 31.1823 23.7458 31.8629 23.7458C32.1934 23.7458 32.5046 23.6778 32.7962 23.5417C33.0879 23.4056 33.3261 23.2062 33.5108 22.9437ZM38.6487 21.5146C38.7168 22.1174 38.8772 22.584 39.1299 22.9146C39.3147 23.1576 39.5529 23.3472 39.8445 23.4833C40.1362 23.6097 40.4473 23.6729 40.7779 23.6729C41.1084 23.6729 41.4147 23.6097 41.6966 23.4833C41.9883 23.3472 42.2265 23.1576 42.4112 22.9146C42.4306 22.8951 42.4938 22.7882 42.6008 22.5937L44.2341 23.2937C44.098 23.5465 43.9473 23.7653 43.782 23.95C43.4223 24.3583 42.9945 24.6743 42.4987 24.8979C42.0029 25.1118 41.4779 25.2188 40.9237 25.2188C40.2918 25.2188 39.7036 25.1118 39.1591 24.8979C38.6244 24.684 38.1772 24.3583 37.8174 23.9208C37.1952 23.1431 36.8841 22.2146 36.8841 21.1354C36.8841 19.9396 37.1952 18.9625 37.8174 18.2042C38.1674 17.7861 38.6001 17.4653 39.1154 17.2417C39.6404 17.0181 40.1945 16.9062 40.7779 16.9062C41.3709 16.9062 41.9202 17.0181 42.4258 17.2417C42.9411 17.4556 43.3737 17.7764 43.7237 18.2042C44.3459 18.9625 44.657 19.9153 44.657 21.0625C44.657 21.1694 44.6473 21.3201 44.6279 21.5146H38.6487ZM40.7779 18.4521C40.4473 18.4424 40.1362 18.5056 39.8445 18.6417C39.5529 18.7681 39.3147 18.9576 39.1299 19.2104C38.9258 19.4632 38.7848 19.7937 38.707 20.2021H42.8341C42.7563 19.7937 42.6154 19.4632 42.4112 19.2104C42.2265 18.9576 41.9883 18.7681 41.6966 18.6417C41.4147 18.5056 41.1084 18.4424 40.7779 18.4521ZM53.0297 23.4396H53.7005V25.9917H52.1547V25H47.0943V25.9917H45.5339V23.4396C45.913 23.4396 46.2436 23.2306 46.5255 22.8125C46.8075 22.3944 47.0019 21.7187 47.1089 20.7854L47.5318 17.125H53.0297V23.4396ZM51.4693 18.5833H48.888L48.6109 20.975C48.4651 22.1708 48.2075 22.9924 47.838 23.4396H51.4693V18.5833ZM62.1561 17.125V25H60.5957V18.5833H57.9853L57.504 22.3312C57.3971 23.2257 57.1686 23.9014 56.8186 24.3583C56.4686 24.8056 55.9485 25.0292 55.2582 25.0292C55.0443 25.0292 54.879 25.0194 54.7624 25V23.5271C55.0929 23.5271 55.3408 23.4687 55.5061 23.3521C55.6714 23.2354 55.7832 23.0799 55.8415 22.8854C55.9096 22.6812 55.9679 22.3799 56.0165 21.9812L56.629 17.125H62.1561ZM67.6568 25.2188C67.0734 25.2188 66.5193 25.1069 65.9943 24.8833C65.479 24.6597 65.0464 24.3389 64.6964 23.9208C64.0741 23.1528 63.763 22.2 63.763 21.0625C63.763 20.5181 63.8408 20.0028 63.9964 19.5167C64.1519 19.0208 64.3852 18.5833 64.6964 18.2042C65.0366 17.7861 65.4693 17.4653 65.9943 17.2417C66.5193 17.0181 67.0734 16.9062 67.6568 16.9062C68.2401 16.9062 68.7894 17.0181 69.3047 17.2417C69.8297 17.4556 70.2623 17.7764 70.6026 18.2042C71.2345 18.9722 71.5505 19.925 71.5505 21.0625C71.5505 21.6167 71.4727 22.1271 71.3172 22.5937C71.1714 23.0604 70.9332 23.5028 70.6026 23.9208C70.2526 24.3486 69.82 24.6743 69.3047 24.8979C68.7991 25.1118 68.2498 25.2188 67.6568 25.2188ZM69.3047 22.9146C69.645 22.4674 69.8151 21.85 69.8151 21.0625C69.8151 20.2653 69.645 19.6431 69.3047 19.1958C69.12 18.9528 68.8818 18.7681 68.5901 18.6417C68.3082 18.5153 67.997 18.4521 67.6568 18.4521C67.3165 18.4521 67.0005 18.5153 66.7089 18.6417C66.4172 18.7681 66.1839 18.9528 66.0089 19.1958C65.6686 19.6431 65.4984 20.2653 65.4984 21.0625C65.4984 21.85 65.6686 22.4674 66.0089 22.9146C66.1839 23.1576 66.4172 23.3472 66.7089 23.4833C67.0005 23.6097 67.3165 23.6729 67.6568 23.6729C67.9873 23.6729 68.2984 23.6097 68.5901 23.4833C68.8818 23.3472 69.12 23.1576 69.3047 22.9146ZM80.8456 21.0479L83.4268 25H81.5893L79.5477 21.7187H78.556V25H77.0831V21.7187H76.0914L74.0643 25H72.2122L74.7935 21.0479L72.3435 17.125H74.181L76.106 20.4208H77.0831V17.125H78.556V20.4208H79.5477L81.4581 17.125H83.2956L80.8456 21.0479ZM85.6389 21.5146C85.707 22.1174 85.8674 22.584 86.1202 22.9146C86.3049 23.1576 86.5431 23.3472 86.8348 23.4833C87.1264 23.6097 87.4375 23.6729 87.7681 23.6729C88.0987 23.6729 88.4049 23.6097 88.6868 23.4833C88.9785 23.3472 89.2167 23.1576 89.4014 22.9146C89.4209 22.8951 89.4841 22.7882 89.591 22.5937L91.2243 23.2937C91.0882 23.5465 90.9375 23.7653 90.7723 23.95C90.4125 24.3583 89.9848 24.6743 89.4889 24.8979C88.9931 25.1118 88.4681 25.2188 87.9139 25.2188C87.282 25.2188 86.6938 25.1118 86.1493 24.8979C85.6146 24.684 85.1674 24.3583 84.8077 23.9208C84.1855 23.1431 83.8743 22.2146 83.8743 21.1354C83.8743 19.9396 84.1855 18.9625 84.8077 18.2042C85.1577 17.7861 85.5903 17.4653 86.1056 17.2417C86.6306 17.0181 87.1848 16.9062 87.7681 16.9062C88.3612 16.9062 88.9105 17.0181 89.416 17.2417C89.9313 17.4556 90.3639 17.7764 90.7139 18.2042C91.3362 18.9625 91.6473 19.9153 91.6473 21.0625C91.6473 21.1694 91.6375 21.3201 91.6181 21.5146H85.6389ZM87.7681 18.4521C87.4375 18.4424 87.1264 18.5056 86.8348 18.6417C86.5431 18.7681 86.3049 18.9576 86.1202 19.2104C85.916 19.4632 85.775 19.7937 85.6973 20.2021H89.8243C89.7466 19.7937 89.6056 19.4632 89.4014 19.2104C89.2167 18.9576 88.9785 18.7681 88.6868 18.6417C88.4049 18.5056 88.0987 18.4424 87.7681 18.4521ZM100.224 17.125V25H98.5908V21.6896H94.9012V25H93.2533V17.125H94.9012V20.0562H98.5908V17.125H100.224ZM109.176 25H107.513V19.75L103.721 25H102.263V17.125H103.926V22.2583L107.732 17.125H109.176V25ZM112.545 21.5146C112.613 22.1174 112.774 22.584 113.026 22.9146C113.211 23.1576 113.449 23.3472 113.741 23.4833C114.033 23.6097 114.344 23.6729 114.674 23.6729C115.005 23.6729 115.311 23.6097 115.593 23.4833C115.885 23.3472 116.123 23.1576 116.308 22.9146C116.327 22.8951 116.39 22.7882 116.497 22.5937L118.131 23.2937C117.994 23.5465 117.844 23.7653 117.679 23.95C117.319 24.3583 116.891 24.6743 116.395 24.8979C115.899 25.1118 115.374 25.2188 114.82 25.2188C114.188 25.2188 113.6 25.1118 113.056 24.8979C112.521 24.684 112.074 24.3583 111.714 23.9208C111.092 23.1431 110.781 22.2146 110.781 21.1354C110.781 19.9396 111.092 18.9625 111.714 18.2042C112.064 17.7861 112.497 17.4653 113.012 17.2417C113.537 17.0181 114.091 16.9062 114.674 16.9062C115.267 16.9062 115.817 17.0181 116.322 17.2417C116.838 17.4556 117.27 17.7764 117.62 18.2042C118.242 18.9625 118.554 19.9153 118.554 21.0625C118.554 21.1694 118.544 21.3201 118.524 21.5146H112.545ZM114.674 18.4521C114.344 18.4424 114.033 18.5056 113.741 18.6417C113.449 18.7681 113.211 18.9576 113.026 19.2104C112.822 19.4632 112.681 19.7937 112.604 20.2021H116.731C116.653 19.7937 116.512 19.4632 116.308 19.2104C116.123 18.9576 115.885 18.7681 115.593 18.6417C115.311 18.5056 115.005 18.4424 114.674 18.4521ZM129.989 23.4396H130.66V25.9917H129.114V25H124.053V25.9917H122.493V23.4396C122.872 23.4396 123.203 23.2306 123.485 22.8125C123.766 22.3944 123.961 21.7187 124.068 20.7854L124.491 17.125H129.989V23.4396ZM128.428 18.5833H125.847L125.57 20.975C125.424 22.1708 125.166 22.9924 124.797 23.4396H128.428V18.5833ZM139.421 17.125V25H137.788V21.6896H134.098V25H132.451V17.125H134.098V20.0562H137.788V17.125H139.421ZM147.775 17.125V25H146.112V22.3167H144.187L142.889 25H141.023L142.452 22.0687C142.199 21.9521 141.976 21.7965 141.781 21.6021C141.538 21.3687 141.348 21.0868 141.212 20.7562C141.086 20.416 141.023 20.066 141.023 19.7062C141.023 19.3562 141.086 19.016 141.212 18.6854C141.348 18.3549 141.538 18.0729 141.781 17.8396C142.024 17.6062 142.306 17.4312 142.627 17.3146C142.958 17.1882 143.293 17.125 143.633 17.125H147.775ZM146.112 18.6708H143.706C143.424 18.6708 143.186 18.7826 142.992 19.0062C142.797 19.2007 142.7 19.434 142.7 19.7062C142.7 19.9687 142.792 20.2021 142.977 20.4062C143.181 20.6396 143.424 20.7562 143.706 20.7562H146.112V18.6708ZM152.191 14.5V22.375H150.543V14.5H152.191ZM152.191 23.4542V25H150.543V23.4542H152.191Z" fill="white"/>
<defs>
<filter id="filter0_d_17_74" x="6" y="1" width="171" height="65" filterUnits="userSpaceOnUse" color-interpolation-filters="sRGB">
<feFlood flood-opacity="0" result="BackgroundImageFix"/>
<feColorMatrix in="SourceAlpha" type="matrix" values="0 0 0 0 0 0 0 0 0 0 0 0 0 0 0 0 0 0 127 0" result="hardAlpha"/>
<feOffset dy="7"/>
<feGaussianBlur stdDeviation="9.5"/>
<feColorMatrix type="matrix" values="0 0 0 0 0.195833 0 0 0 0 0.0465104 0 0 0 0 0.0465104 0 0 0 0.19 0"/>
<feBlend mode="normal" in2="BackgroundImageFix" result="effect1_dropShadow_17_74"/>
<feBlend mode="normal" in="SourceGraphic" in2="effect1_dropShadow_17_74" result="shape"/>
</filter>
</defs>
</svg>
