<svg width="161" height="35" viewBox="0 0 161 35" fill="none" xmlns="http://www.w3.org/2000/svg">
<path d="M9.59997 16.8961L6.14397 9.93608H5.99997V34.0801H-3.50475e-05V0.576077H6.95997L17.04 17.7601L20.496 24.7201H20.64V0.576077H26.64V34.0801H19.68L9.59997 16.8961ZM59.652 34.6561C57.444 34.6561 55.444 34.2881 53.652 33.5521C51.86 32.8161 50.324 31.7121 49.044 30.2401C47.796 28.7681 46.82 26.9601 46.116 24.8161C45.412 22.6721 45.06 20.1761 45.06 17.3281C45.06 14.5121 45.412 12.0321 46.116 9.88808C46.82 7.71208 47.796 5.88808 49.044 4.41608C50.324 2.94408 51.86 1.84008 53.652 1.10408C55.444 0.368076 57.444 7.62939e-05 59.652 7.62939e-05C61.86 7.62939e-05 63.86 0.368076 65.652 1.10408C67.444 1.84008 68.98 2.94408 70.26 4.41608C71.54 5.88808 72.516 7.71208 73.188 9.88808C73.892 12.0321 74.244 14.5121 74.244 17.3281C74.244 20.1761 73.892 22.6721 73.188 24.8161C72.516 26.9601 71.54 28.7681 70.26 30.2401C68.98 31.7121 67.444 32.8161 65.652 33.5521C63.86 34.2881 61.86 34.6561 59.652 34.6561ZM59.652 29.0401C62.052 29.0401 63.956 28.2401 65.364 26.6401C66.804 25.0401 67.524 22.8001 67.524 19.9201V14.7361C67.524 11.8561 66.804 9.61608 65.364 8.01608C63.956 6.41608 62.052 5.61608 59.652 5.61608C57.252 5.61608 55.332 6.41608 53.892 8.01608C52.484 9.61608 51.78 11.8561 51.78 14.7361V19.9201C51.78 22.8001 52.484 25.0401 53.892 26.6401C55.332 28.2401 57.252 29.0401 59.652 29.0401ZM99.2291 34.0801L88.2851 0.576077H94.7651L99.9011 16.8961L102.877 28.0321H103.021L105.949 16.8961L111.085 0.576077H117.373L106.429 34.0801H99.2291ZM145.996 34.6561C143.788 34.6561 141.788 34.2881 139.996 33.5521C138.204 32.8161 136.668 31.7121 135.388 30.2401C134.14 28.7681 133.164 26.9601 132.46 24.8161C131.756 22.6721 131.404 20.1761 131.404 17.3281C131.404 14.5121 131.756 12.0321 132.46 9.88808C133.164 7.71208 134.14 5.88808 135.388 4.41608C136.668 2.94408 138.204 1.84008 139.996 1.10408C141.788 0.368076 143.788 7.62939e-05 145.996 7.62939e-05C148.204 7.62939e-05 150.204 0.368076 151.996 1.10408C153.788 1.84008 155.324 2.94408 156.604 4.41608C157.884 5.88808 158.86 7.71208 159.532 9.88808C160.236 12.0321 160.588 14.5121 160.588 17.3281C160.588 20.1761 160.236 22.6721 159.532 24.8161C158.86 26.9601 157.884 28.7681 156.604 30.2401C155.324 31.7121 153.788 32.8161 151.996 33.5521C150.204 34.2881 148.204 34.6561 145.996 34.6561ZM145.996 29.0401C148.396 29.0401 150.3 28.2401 151.708 26.6401C153.148 25.0401 153.868 22.8001 153.868 19.9201V14.7361C153.868 11.8561 153.148 9.61608 151.708 8.01608C150.3 6.41608 148.396 5.61608 145.996 5.61608C143.596 5.61608 141.676 6.41608 140.236 8.01608C138.828 9.61608 138.124 11.8561 138.124 14.7361V19.9201C138.124 22.8001 138.828 25.0401 140.236 26.6401C141.676 28.2401 143.596 29.0401 145.996 29.0401Z" fill="white"/>
</svg>
