<svg width="135" height="22" viewBox="0 0 135 22" fill="none" xmlns="http://www.w3.org/2000/svg">
<path d="M6.38994 11.4008L4.37994 7.20078H4.28994V21.3008H-5.83827e-05V0.360781H4.97994L10.7099 10.2608L12.7199 14.4608H12.8099V0.360781H17.0999V21.3008H12.1199L6.38994 11.4008ZM37.776 21.6608C35.936 21.6608 34.376 21.3508 33.096 20.7308C31.816 20.0908 30.726 19.2708 29.826 18.2708L32.826 15.2408C34.246 16.8408 35.996 17.6408 38.076 17.6408C39.196 17.6408 40.026 17.4108 40.566 16.9508C41.106 16.4908 41.376 15.8808 41.376 15.1208C41.376 14.5408 41.216 14.0608 40.896 13.6808C40.576 13.2808 39.926 13.0108 38.946 12.8708L36.876 12.6008C34.656 12.3208 33.026 11.6508 31.986 10.5908C30.966 9.53078 30.456 8.12078 30.456 6.36078C30.456 5.42078 30.636 4.56078 30.996 3.78078C31.356 3.00078 31.866 2.33078 32.526 1.77078C33.206 1.21078 34.026 0.780781 34.986 0.480781C35.966 0.16078 37.076 0.000780106 38.316 0.000780106C39.896 0.000780106 41.286 0.25078 42.486 0.750779C43.686 1.25078 44.716 1.98078 45.576 2.94078L42.546 6.00078C42.046 5.42078 41.436 4.95078 40.716 4.59078C40.016 4.21078 39.126 4.02078 38.046 4.02078C37.026 4.02078 36.266 4.20078 35.766 4.56078C35.266 4.92078 35.016 5.42078 35.016 6.06078C35.016 6.78078 35.206 7.30078 35.586 7.62078C35.986 7.94078 36.626 8.17078 37.506 8.31078L39.576 8.64078C41.736 8.98078 43.336 9.65078 44.376 10.6508C45.416 11.6308 45.936 13.0308 45.936 14.8508C45.936 15.8508 45.756 16.7708 45.396 17.6108C45.036 18.4508 44.506 19.1708 43.806 19.7708C43.126 20.3708 42.276 20.8408 41.256 21.1808C40.236 21.5008 39.076 21.6608 37.776 21.6608ZM49.7167 21.3008V0.360781H63.9667V4.41078H54.2767V8.70078H62.5867V12.7208H54.2767V17.2508H63.9667V21.3008H49.7167ZM67.9394 21.3008V0.360781H72.4994V17.2508H80.4794V21.3008H67.9394ZM83.8476 21.3008V0.360781H88.4076V17.2508H96.3876V21.3008H83.8476ZM99.7558 21.3008V0.360781H114.006V4.41078H104.316V8.70078H112.626V12.7208H104.316V17.2508H114.006V21.3008H99.7558ZM122.538 21.3008H117.978V0.360781H127.908C128.868 0.360781 129.738 0.520781 130.518 0.84078C131.298 1.16078 131.958 1.62078 132.498 2.22078C133.058 2.80078 133.488 3.50078 133.788 4.32078C134.088 5.14078 134.238 6.05078 134.238 7.05078C134.238 8.47078 133.918 9.71078 133.278 10.7708C132.658 11.8308 131.708 12.6008 130.428 13.0808L134.538 21.3008H129.468L125.808 13.6208H122.538V21.3008ZM127.338 9.78078C128.018 9.78078 128.548 9.61078 128.928 9.27078C129.328 8.91078 129.528 8.39078 129.528 7.71078V6.39078C129.528 5.71078 129.328 5.20078 128.928 4.86078C128.548 4.50078 128.018 4.32078 127.338 4.32078H122.538V9.78078H127.338Z" fill="white"/>
<path d="M24.0489 21.6308C23.1489 21.6308 22.4789 21.4108 22.0389 20.9708C21.6189 20.5108 21.4089 19.9308 21.4089 19.2308V18.6308C21.4089 17.9308 21.6189 17.3608 22.0389 16.9208C22.4789 16.4608 23.1489 16.2308 24.0489 16.2308C24.9489 16.2308 25.6089 16.4608 26.0289 16.9208C26.4689 17.3608 26.6889 17.9308 26.6889 18.6308V19.2308C26.6889 19.9308 26.4689 20.5108 26.0289 20.9708C25.6089 21.4108 24.9489 21.6308 24.0489 21.6308Z" fill="#009661"/>
</svg>
