<svg width="193" height="22" viewBox="0 0 193 22" fill="none" xmlns="http://www.w3.org/2000/svg">
<path d="M6.38945 11.4008L4.37945 7.20078H4.28945V21.3008H-0.000546664V0.360781H4.97945L10.7095 10.2608L12.7195 14.4608H12.8095V0.360781H17.0995V21.3008H12.1195L6.38945 11.4008ZM30.1084 21.6608C28.7284 21.6608 27.4684 21.4308 26.3284 20.9708C25.1884 20.5108 24.2184 19.8308 23.4184 18.9308C22.6184 18.0108 21.9984 16.8808 21.5584 15.5408C21.1184 14.1808 20.8984 12.6108 20.8984 10.8308C20.8984 9.05078 21.1184 7.49078 21.5584 6.15078C21.9984 4.79078 22.6184 3.66078 23.4184 2.76078C24.2184 1.84078 25.1884 1.15078 26.3284 0.69078C27.4684 0.23078 28.7284 0.000780106 30.1084 0.000780106C31.4884 0.000780106 32.7484 0.23078 33.8884 0.69078C35.0284 1.15078 35.9984 1.84078 36.7984 2.76078C37.5984 3.66078 38.2184 4.79078 38.6584 6.15078C39.0984 7.49078 39.3184 9.05078 39.3184 10.8308C39.3184 12.6108 39.0984 14.1808 38.6584 15.5408C38.2184 16.8808 37.5984 18.0108 36.7984 18.9308C35.9984 19.8308 35.0284 20.5108 33.8884 20.9708C32.7484 21.4308 31.4884 21.6608 30.1084 21.6608ZM30.1084 17.6108C31.4884 17.6108 32.5584 17.1608 33.3184 16.2608C34.0984 15.3608 34.4884 14.0708 34.4884 12.3908V9.27078C34.4884 7.59078 34.0984 6.30078 33.3184 5.40078C32.5584 4.50078 31.4884 4.05078 30.1084 4.05078C28.7284 4.05078 27.6484 4.50078 26.8684 5.40078C26.1084 6.30078 25.7284 7.59078 25.7284 9.27078V12.3908C25.7284 14.0708 26.1084 15.3608 26.8684 16.2608C27.6484 17.1608 28.7284 17.6108 30.1084 17.6108ZM47.047 21.3008L40.297 0.360781H44.917L48.037 10.4108L49.687 16.9808H49.777L51.367 10.4108L54.487 0.360781H58.957L52.147 21.3008H47.047ZM69.1612 21.6608C67.7812 21.6608 66.5212 21.4308 65.3812 20.9708C64.2412 20.5108 63.2712 19.8308 62.4712 18.9308C61.6712 18.0108 61.0512 16.8808 60.6112 15.5408C60.1712 14.1808 59.9512 12.6108 59.9512 10.8308C59.9512 9.05078 60.1712 7.49078 60.6112 6.15078C61.0512 4.79078 61.6712 3.66078 62.4712 2.76078C63.2712 1.84078 64.2412 1.15078 65.3812 0.69078C66.5212 0.23078 67.7812 0.000780106 69.1612 0.000780106C70.5412 0.000780106 71.8012 0.23078 72.9412 0.69078C74.0812 1.15078 75.0512 1.84078 75.8512 2.76078C76.6512 3.66078 77.2712 4.79078 77.7112 6.15078C78.1512 7.49078 78.3712 9.05078 78.3712 10.8308C78.3712 12.6108 78.1512 14.1808 77.7112 15.5408C77.2712 16.8808 76.6512 18.0108 75.8512 18.9308C75.0512 19.8308 74.0812 20.5108 72.9412 20.9708C71.8012 21.4308 70.5412 21.6608 69.1612 21.6608ZM69.1612 17.6108C70.5412 17.6108 71.6112 17.1608 72.3712 16.2608C73.1512 15.3608 73.5412 14.0708 73.5412 12.3908V9.27078C73.5412 7.59078 73.1512 6.30078 72.3712 5.40078C71.6112 4.50078 70.5412 4.05078 69.1612 4.05078C67.7812 4.05078 66.7012 4.50078 65.9212 5.40078C65.1612 6.30078 64.7812 7.59078 64.7812 9.27078V12.3908C64.7812 14.0708 65.1612 15.3608 65.9212 16.2608C66.7012 17.1608 67.7812 17.6108 69.1612 17.6108ZM96.047 21.6608C94.207 21.6608 92.647 21.3508 91.367 20.7308C90.087 20.0908 88.997 19.2708 88.097 18.2708L91.097 15.2408C92.517 16.8408 94.267 17.6408 96.347 17.6408C97.467 17.6408 98.297 17.4108 98.837 16.9508C99.377 16.4908 99.647 15.8808 99.647 15.1208C99.647 14.5408 99.487 14.0608 99.167 13.6808C98.847 13.2808 98.197 13.0108 97.217 12.8708L95.147 12.6008C92.927 12.3208 91.297 11.6508 90.257 10.5908C89.237 9.53078 88.727 8.12078 88.727 6.36078C88.727 5.42078 88.907 4.56078 89.267 3.78078C89.627 3.00078 90.137 2.33078 90.797 1.77078C91.477 1.21078 92.297 0.780781 93.257 0.480781C94.237 0.16078 95.347 0.000780106 96.587 0.000780106C98.167 0.000780106 99.557 0.25078 100.757 0.750779C101.957 1.25078 102.987 1.98078 103.847 2.94078L100.817 6.00078C100.317 5.42078 99.707 4.95078 98.987 4.59078C98.287 4.21078 97.397 4.02078 96.317 4.02078C95.297 4.02078 94.537 4.20078 94.037 4.56078C93.537 4.92078 93.287 5.42078 93.287 6.06078C93.287 6.78078 93.477 7.30078 93.857 7.62078C94.257 7.94078 94.897 8.17078 95.777 8.31078L97.847 8.64078C100.007 8.98078 101.607 9.65078 102.647 10.6508C103.687 11.6308 104.207 13.0308 104.207 14.8508C104.207 15.8508 104.027 16.7708 103.667 17.6108C103.307 18.4508 102.777 19.1708 102.077 19.7708C101.397 20.3708 100.547 20.8408 99.527 21.1808C98.507 21.5008 97.347 21.6608 96.047 21.6608ZM107.988 21.3008V0.360781H122.238V4.41078H112.548V8.70078H120.858V12.7208H112.548V17.2508H122.238V21.3008H107.988ZM126.21 21.3008V0.360781H130.77V17.2508H138.75V21.3008H126.21ZM142.119 21.3008V0.360781H146.679V17.2508H154.659V21.3008H142.119ZM158.027 21.3008V0.360781H172.277V4.41078H162.587V8.70078H170.897V12.7208H162.587V17.2508H172.277V21.3008H158.027ZM180.809 21.3008H176.249V0.360781H186.179C187.139 0.360781 188.009 0.520781 188.789 0.84078C189.569 1.16078 190.229 1.62078 190.769 2.22078C191.329 2.80078 191.759 3.50078 192.059 4.32078C192.359 5.14078 192.509 6.05078 192.509 7.05078C192.509 8.47078 192.189 9.71078 191.549 10.7708C190.929 11.8308 189.979 12.6008 188.699 13.0808L192.809 21.3008H187.739L184.079 13.6208H180.809V21.3008ZM185.609 9.78078C186.289 9.78078 186.819 9.61078 187.199 9.27078C187.599 8.91078 187.799 8.39078 187.799 7.71078V6.39078C187.799 5.71078 187.599 5.20078 187.199 4.86078C186.819 4.50078 186.289 4.32078 185.609 4.32078H180.809V9.78078H185.609Z" fill="#252525"/>
</svg>
