<svg width="79" height="22" viewBox="0 0 79 22" fill="none" xmlns="http://www.w3.org/2000/svg">
<path d="M6.38994 11.3998L4.37994 7.1998H4.28994V21.2998H-5.83827e-05V0.359804H4.97994L10.7099 10.2598L12.7199 14.4598H12.8099V0.359804H17.0999V21.2998H12.1199L6.38994 11.3998ZM30.1089 21.6598C28.7289 21.6598 27.4689 21.4298 26.3289 20.9698C25.1889 20.5098 24.2189 19.8298 23.4189 18.9298C22.6189 18.0098 21.9989 16.8798 21.5589 15.5398C21.1189 14.1798 20.8989 12.6098 20.8989 10.8298C20.8989 9.0498 21.1189 7.4898 21.5589 6.1498C21.9989 4.7898 22.6189 3.6598 23.4189 2.7598C24.2189 1.8398 25.1889 1.1498 26.3289 0.689804C27.4689 0.229804 28.7289 -0.000196457 30.1089 -0.000196457C31.4889 -0.000196457 32.7489 0.229804 33.8889 0.689804C35.0289 1.1498 35.9989 1.8398 36.7989 2.7598C37.5989 3.6598 38.2189 4.7898 38.6589 6.1498C39.0989 7.4898 39.3189 9.0498 39.3189 10.8298C39.3189 12.6098 39.0989 14.1798 38.6589 15.5398C38.2189 16.8798 37.5989 18.0098 36.7989 18.9298C35.9989 19.8298 35.0289 20.5098 33.8889 20.9698C32.7489 21.4298 31.4889 21.6598 30.1089 21.6598ZM30.1089 17.6098C31.4889 17.6098 32.5589 17.1598 33.3189 16.2598C34.0989 15.3598 34.4889 14.0698 34.4889 12.3898V9.2698C34.4889 7.5898 34.0989 6.2998 33.3189 5.3998C32.5589 4.4998 31.4889 4.0498 30.1089 4.0498C28.7289 4.0498 27.6489 4.4998 26.8689 5.3998C26.1089 6.2998 25.7289 7.5898 25.7289 9.2698V12.3898C25.7289 14.0698 26.1089 15.3598 26.8689 16.2598C27.6489 17.1598 28.7289 17.6098 30.1089 17.6098ZM47.0474 21.2998L40.2974 0.359804H44.9174L48.0374 10.4098L49.6874 16.9798H49.7774L51.3674 10.4098L54.4874 0.359804H58.9574L52.1474 21.2998H47.0474ZM69.1617 21.6598C67.7817 21.6598 66.5217 21.4298 65.3817 20.9698C64.2417 20.5098 63.2717 19.8298 62.4717 18.9298C61.6717 18.0098 61.0517 16.8798 60.6117 15.5398C60.1717 14.1798 59.9517 12.6098 59.9517 10.8298C59.9517 9.0498 60.1717 7.4898 60.6117 6.1498C61.0517 4.7898 61.6717 3.6598 62.4717 2.7598C63.2717 1.8398 64.2417 1.1498 65.3817 0.689804C66.5217 0.229804 67.7817 -0.000196457 69.1617 -0.000196457C70.5417 -0.000196457 71.8017 0.229804 72.9417 0.689804C74.0817 1.1498 75.0517 1.8398 75.8517 2.7598C76.6517 3.6598 77.2717 4.7898 77.7117 6.1498C78.1517 7.4898 78.3717 9.0498 78.3717 10.8298C78.3717 12.6098 78.1517 14.1798 77.7117 15.5398C77.2717 16.8798 76.6517 18.0098 75.8517 18.9298C75.0517 19.8298 74.0817 20.5098 72.9417 20.9698C71.8017 21.4298 70.5417 21.6598 69.1617 21.6598ZM69.1617 17.6098C70.5417 17.6098 71.6117 17.1598 72.3717 16.2598C73.1517 15.3598 73.5417 14.0698 73.5417 12.3898V9.2698C73.5417 7.5898 73.1517 6.2998 72.3717 5.3998C71.6117 4.4998 70.5417 4.0498 69.1617 4.0498C67.7817 4.0498 66.7017 4.4998 65.9217 5.3998C65.1617 6.2998 64.7817 7.5898 64.7817 9.2698V12.3898C64.7817 14.0698 65.1617 15.3598 65.9217 16.2598C66.7017 17.1598 67.7817 17.6098 69.1617 17.6098Z" fill="#009661"/>
</svg>
