<svg width="24" height="24" viewBox="0 0 24 24" fill="none" xmlns="http://www.w3.org/2000/svg">
<g clip-path="url(#clip0_110_722)">
<path fill-rule="evenodd" clip-rule="evenodd" d="M23.3821 17.7016L20.3985 14.718C19.5759 13.8955 18.2375 13.8955 17.415 14.718L16.0588 16.0742C15.4357 16.6973 14.4217 16.6971 13.7987 16.0744L7.9206 10.1912C7.29599 9.56663 7.29589 8.55568 7.9206 7.93097L9.27674 6.57483C10.0957 5.75593 10.1071 4.42163 9.27594 3.59053L6.29319 0.617157C5.47062 -0.205359 4.1322 -0.205359 3.31184 0.615001L2.22471 1.6927C-0.741546 4.65891 -0.741546 9.4853 2.22457 12.4514L11.5383 21.77C14.5115 24.7432 19.3237 24.7435 22.2971 21.77L23.3821 20.6851C24.2046 19.8625 24.2046 18.5241 23.3821 17.7016ZM4.30418 1.61166C4.57835 1.33749 5.02442 1.33744 5.29948 1.61241L8.28224 4.58578C8.55707 4.86061 8.55707 5.30541 8.28224 5.58029L7.78494 6.07754L6.79522 7.07686C5.75365 8.2576 5.79706 10.0568 6.92586 11.1856L12.8038 17.0685C13.9314 18.1961 15.7307 18.2425 16.9129 17.1995L17.9123 16.2098L18.4095 15.7125C18.6837 15.4383 19.1298 15.4383 19.404 15.7125L22.3876 18.6961C22.6618 18.9703 22.6618 19.4164 22.3876 19.6906L21.8903 20.1879L20.8769 21.1636C18.4391 23.1932 14.8437 23.0863 12.533 20.7756L3.21921 11.457C0.9243 9.16205 0.79816 5.55854 2.83127 3.11292L3.80946 2.10206L4.30418 1.61166Z" fill="#009661"/>
</g>
<defs>
<clipPath id="clip0_110_722">
<rect width="24" height="24" fill="white"/>
</clipPath>
</defs>
</svg>
