<svg width="24" height="24" viewBox="0 0 24 24" fill="none" xmlns="http://www.w3.org/2000/svg">
<g clip-path="url(#clip0_110_688)">
<path d="M12 0C5.37257 0 0 5.37257 0 12C0 18.6274 5.37257 23.9999 12 23.9999C18.6274 23.9999 23.9999 18.6274 23.9999 12C23.9929 5.37554 18.6245 0.00708147 12 0ZM12 22.2857C6.31933 22.2857 1.71427 17.6806 1.71427 12C1.71427 6.31933 6.31933 1.71427 12 1.71427C17.6806 1.71427 22.2857 6.31933 22.2857 12C22.2796 17.6781 17.6781 22.2796 12 22.2857Z" fill="#009661"/>
<path d="M11.9994 4.28613C11.526 4.28613 11.1423 4.66989 11.1423 5.14329V11.1433H5.14232C4.66891 11.1433 4.28516 11.5271 4.28516 12.0005C4.28516 12.4739 4.66891 12.8576 5.14232 12.8576H11.9994C12.4728 12.8576 12.8566 12.4738 12.8566 12.0004V5.14329C12.8566 4.66989 12.4728 4.28613 11.9994 4.28613Z" fill="#009661"/>
</g>
<defs>
<clipPath id="clip0_110_688">
<rect width="24" height="24" fill="white"/>
</clipPath>
</defs>
</svg>
